<svg width="40" height="31" viewBox="0 0 40 31" fill="none" xmlns="http://www.w3.org/2000/svg">
<path d="M32.5344 18.0379C29.6506 18.0379 27.3132 20.426 27.3132 23.3725C27.3132 26.3191 29.6506 28.7072 32.5344 28.7072C35.4182 28.7072 37.7556 26.3191 37.7556 23.3725C37.7556 20.426 35.4178 18.0379 32.5344 18.0379ZM35.2763 25.6123H29.7921V24.1519H35.2767V25.6123H35.2763ZM35.2763 22.5927H29.7921V21.1324H35.2767V22.5927H35.2763ZM32.5344 16.5775C33.4377 16.5775 34.2986 16.7639 35.0852 17.0988V11.4852H3.61419V22.4686C3.61419 24.3929 5.14591 25.9584 7.02924 25.9584H26.387C26.064 25.1605 25.8835 24.2877 25.8835 23.3721C25.8839 19.6258 28.8669 16.5775 32.5344 16.5775ZM7.44802 18.2564H11.521V19.3921H7.44802V18.2564ZM15.594 22.4175H7.44802V21.2818H15.594V22.4175ZM3.61419 7.18253V8.12835H35.0847V7.18253C35.0847 5.25826 33.5521 3.69276 31.6687 3.69276H7.02924C5.14591 3.69276 3.61419 5.25826 3.61419 7.18253ZM39.6508 28.9229L37.9991 27.2347C37.5426 27.9065 36.9719 28.4896 36.3149 28.9555L37.9667 30.6437C38.1992 30.8812 38.5045 31 38.809 31C39.1144 31 39.4188 30.8812 39.6513 30.6437C40.1163 30.1686 40.1163 29.3985 39.6508 28.9229ZM7.02924 2.47531H31.3224C30.896 1.04464 29.5929 0 28.0555 0H3.416C1.53267 0 0 1.56599 0 3.49026V18.7763C0 20.3477 1.02242 21.679 2.42264 22.1147V7.18204C2.42264 4.5865 4.48892 2.47531 7.02924 2.47531Z" fill="#F68E00"/>
</svg>
