<svg width="26" height="27" viewBox="0 0 26 27" fill="none" xmlns="http://www.w3.org/2000/svg">
<path d="M25.1157 3.96825L13.416 0.0683554C13.1461 -0.0227851 12.8538 -0.0227851 12.584 0.0683554L0.884307 3.96825C0.626106 4.05546 0.401844 4.22161 0.243219 4.44322C0.0845929 4.66483 -0.000373012 4.93069 0.000330479 5.20322V10.1171C-0.0233864 13.8253 1.23008 17.4286 3.55007 20.3215C5.87007 23.2144 9.11516 25.2205 12.74 26.0027H13H13.286C16.906 25.2153 20.1451 23.2069 22.46 20.3145C24.7749 17.4221 26.0246 13.8217 25.9996 10.1171V5.20322C26.0003 4.93069 25.9154 4.66483 25.7567 4.44322C25.5981 4.22161 25.3739 4.05546 25.1157 3.96825ZM23.3997 10.1171C23.4247 13.1814 22.4098 16.1637 20.5209 18.5768C18.632 20.9899 15.9807 22.6911 13 23.4027C10.0204 22.689 7.37045 20.9871 5.48192 18.5745C3.59339 16.162 2.57766 13.1809 2.60026 10.1171V6.13919L13 2.66829L23.3997 6.13919V10.1171Z" fill="#155686"/>
<path d="M11.3223 9.47996C11.0775 9.23518 10.7455 9.09766 10.3993 9.09766C10.0531 9.09766 9.72111 9.23518 9.47632 9.47996C9.23154 9.72475 9.09402 10.0568 9.09402 10.4029C9.09402 10.7491 9.23154 11.0811 9.47632 11.3259L11.1663 13.0029L9.47632 14.6798C9.35448 14.8007 9.25777 14.9445 9.19177 15.1029C9.12578 15.2613 9.0918 15.4312 9.0918 15.6028C9.0918 15.7744 9.12578 15.9443 9.19177 16.1027C9.25777 16.2611 9.35448 16.4049 9.47632 16.5258C9.59717 16.6476 9.74095 16.7443 9.89936 16.8103C10.0578 16.8763 10.2277 16.9103 10.3993 16.9103C10.5709 16.9103 10.7408 16.8763 10.8992 16.8103C11.0576 16.7443 11.2014 16.6476 11.3223 16.5258L12.9992 14.8358L14.6762 16.5258C14.797 16.6476 14.9408 16.7443 15.0992 16.8103C15.2576 16.8763 15.4275 16.9103 15.5992 16.9103C15.7708 16.9103 15.9407 16.8763 16.0991 16.8103C16.2575 16.7443 16.4013 16.6476 16.5221 16.5258C16.644 16.4049 16.7407 16.2611 16.8067 16.1027C16.8727 15.9443 16.9067 15.7744 16.9067 15.6028C16.9067 15.4312 16.8727 15.2613 16.8067 15.1029C16.7407 14.9445 16.644 14.8007 16.5221 14.6798L14.8322 13.0029L16.5221 11.3259C16.7669 11.0811 16.9044 10.7491 16.9044 10.4029C16.9044 10.0568 16.7669 9.72475 16.5221 9.47996C16.2773 9.23518 15.9453 9.09766 15.5992 9.09766C15.253 9.09766 14.921 9.23518 14.6762 9.47996L12.9992 11.1699L11.3223 9.47996Z" fill="#155686"/>
</svg>
