<svg width="39" height="25" viewBox="0 0 39 25" fill="none" xmlns="http://www.w3.org/2000/svg">
<path fill-rule="evenodd" clip-rule="evenodd" d="M15.3577 2.67998V4.60996C15.3577 5.38083 15.9603 6.01096 16.7202 6.05499L16.8052 6.05745H22.5952C23.366 6.05745 23.9962 5.45485 24.0402 4.69501L24.0427 4.60996V2.67998H38.035C38.568 2.67998 39 3.11202 39 3.64497V23.9098C39 24.4427 38.568 24.8748 38.035 24.8748H1.36538C0.832431 24.8748 0.400391 24.4427 0.400391 23.9098V3.64497C0.400391 3.11202 0.832431 2.67998 1.36538 2.67998H15.3577ZM12.4628 7.02244C8.46565 7.02244 5.22534 10.2627 5.22534 14.2599C5.22534 18.257 8.46565 21.4973 12.4628 21.4973C16.4599 21.4973 19.7002 18.257 19.7002 14.2599C19.7002 10.2627 16.4599 7.02244 12.4628 7.02244ZM12.474 16.1898L12.5789 16.1918C14.1978 16.2465 15.5277 17.4405 15.7925 18.9972C14.8507 19.6604 13.7022 20.0498 12.4628 20.0498C11.2233 20.0498 10.0749 19.6604 9.1332 18.9973C9.39781 17.4405 10.7278 16.2465 12.3467 16.1918L12.4512 16.1894L12.4628 16.1898C12.4665 16.1898 12.4702 16.1898 12.474 16.1898ZM33.4513 18.1198H24.2839C23.8842 18.1198 23.5602 18.4439 23.5602 18.8436C23.5602 19.2433 23.8842 19.5673 24.2839 19.5673H33.4513C33.851 19.5673 34.175 19.2433 34.175 18.8436C34.175 18.4439 33.851 18.1198 33.4513 18.1198ZM12.4628 8.46992C15.6605 8.46992 18.2527 11.0622 18.2527 14.2599C18.2527 15.6289 17.7775 16.887 16.9836 17.8775C16.5532 16.7266 15.6959 15.784 14.6046 15.2426C15.0725 14.7283 15.3577 14.0449 15.3577 13.2949C15.3577 11.696 14.0616 10.3999 12.4628 10.3999C10.8639 10.3999 9.5678 11.696 9.5678 13.2949C9.5678 14.0449 9.85303 14.7283 10.3212 15.2425C9.22969 15.784 8.37237 16.7266 7.94239 17.8782C7.14799 16.887 6.67283 15.6289 6.67283 14.2599C6.67283 11.0622 9.26507 8.46992 12.4628 8.46992ZM33.4513 13.7774H24.2839C23.8842 13.7774 23.5602 14.1014 23.5602 14.5011C23.5602 14.9008 23.8842 15.2249 24.2839 15.2249H33.4513C33.851 15.2249 34.175 14.9008 34.175 14.5011C34.175 14.1014 33.851 13.7774 33.4513 13.7774ZM12.4628 11.8474C13.2622 11.8474 13.9103 12.4954 13.9103 13.2949C13.9103 14.0943 13.2622 14.7424 12.4628 14.7424L12.4729 14.7419L12.4526 14.7423C11.6579 14.7369 11.0153 14.0909 11.0153 13.2949C11.0153 12.4954 11.6633 11.8474 12.4628 11.8474ZM33.4513 9.43491H24.2839C23.8842 9.43491 23.5602 9.75894 23.5602 10.1587C23.5602 10.5584 23.8842 10.8824 24.2839 10.8824H33.4513C33.851 10.8824 34.175 10.5584 34.175 10.1587C34.175 9.75894 33.851 9.43491 33.4513 9.43491ZM22.1127 0.75C22.3791 0.75 22.5952 0.96602 22.5952 1.2325V4.12747C22.5952 4.39394 22.3791 4.60996 22.1127 4.60996H17.2877C17.0212 4.60996 16.8052 4.39394 16.8052 4.12747V1.2325C16.8052 0.96602 17.0212 0.75 17.2877 0.75H22.1127Z" fill="#F68E00"/>
</svg>
