<svg width="39" height="32" viewBox="0 0 39 32" fill="none" xmlns="http://www.w3.org/2000/svg">
<path d="M37.179 14.8311H30.0647C30.2657 15.6751 30.3461 16.5192 30.3461 17.4034C30.3461 18.6092 30.1451 19.7749 29.7834 20.9003H31.7127C31.994 20.9003 32.195 21.1414 32.195 21.3826V25.1608C32.195 25.4421 31.9538 25.6431 31.7127 25.6431H6.47115C6.1898 25.6431 5.98883 25.4019 5.98883 25.1608V21.3826C5.98883 21.1012 6.22999 20.9003 6.47115 20.9003H8.40044C8.03869 19.7749 7.83773 18.6092 7.83773 17.4034C7.83773 16.5192 7.91811 15.6751 8.11908 14.8311H1.00484C0.442128 14.8311 0 15.2732 0 15.8359V30.7075C0 31.2702 0.442128 31.7123 1.00484 31.7123H37.179C37.7417 31.7123 38.1838 31.2702 38.1838 30.7075V15.8359C38.1838 15.2732 37.7417 14.8311 37.179 14.8311Z" fill="#F68E00"/>
<path d="M25.9652 23.8748C27.5729 22.1867 28.5376 19.8956 28.5376 17.4036C28.5376 12.1785 24.2771 7.91797 19.0519 7.91797C13.8268 7.91797 9.60645 12.1383 9.60645 17.3634C9.60645 19.8554 10.6113 22.1465 12.1788 23.8346H25.9652V23.8748Z" fill="#F68E00"/>
<path d="M19.0912 5.86825C19.7343 5.86825 20.2167 5.34573 20.2167 4.70264V1.16561C20.2167 0.522515 19.6941 0 19.0912 0C18.4481 0 17.9658 0.522515 17.9658 1.16561V4.70264C17.9658 5.38593 18.4481 5.86825 19.0912 5.86825Z" fill="#F68E00"/>
<path d="M14.5502 7.11434C15.1933 7.11434 15.6756 6.59183 15.6756 5.94873V2.4117C15.6756 1.76861 15.1531 1.24609 14.5502 1.24609C13.9071 1.24609 13.4248 1.76861 13.4248 2.4117V5.94873C13.4248 6.59183 13.9071 7.11434 14.5502 7.11434Z" fill="#F68E00"/>
<path d="M23.6335 7.11434C24.2765 7.11434 24.7589 6.59183 24.7589 5.94873V2.4117C24.7589 1.76861 24.2364 1.24609 23.6335 1.24609C22.9904 1.24609 22.508 1.76861 22.508 2.4117V5.94873C22.4678 6.59183 22.9904 7.11434 23.6335 7.11434Z" fill="#F68E00"/>
</svg>
