<svg width="28" height="28" viewBox="0 0 28 28" fill="none" xmlns="http://www.w3.org/2000/svg">
<path d="M4.99392 20.1362C4.08946 20.4239 3.22612 20.7117 2.56834 20.9995C-0.391685 22.4384 0.0194288 26.8784 0.0194288 27.084C0.0605403 27.4951 0.430544 27.824 0.841658 27.824H27.153C27.5641 27.824 27.9341 27.4951 27.9752 27.084C27.9752 26.8784 28.4275 22.4384 25.4674 20.9995C24.8096 20.6706 23.9463 20.4239 23.0419 20.1362C20.9863 19.4784 18.4374 18.6973 17.9851 17.1761C18.0263 16.9295 18.1085 16.1895 18.684 15.655C19.794 14.545 20.9863 11.4616 20.9863 8.41939V8.37827C20.9863 8.21383 20.6574 3.93824 18.2318 2.12933C17.9029 1.80044 16.5462 0.69043 13.9973 0.69043H13.9562C11.4484 0.69043 10.0917 1.80044 9.76285 2.08822C7.29616 3.89712 7.00838 8.17272 7.00838 8.33716V8.37827C7.00838 11.4205 8.20061 14.5039 9.31062 15.6139C9.88618 16.1895 9.9684 16.9295 10.0095 17.135C9.5984 18.6973 7.04949 19.4784 4.99392 20.1362Z" fill="#F68E00"/>
</svg>
