<svg width="21" height="21" viewBox="0 0 21 21" fill="none" xmlns="http://www.w3.org/2000/svg">
<path fill-rule="evenodd" clip-rule="evenodd" d="M6.56055 0.649902C5.48106 0.649902 4.61982 1.53428 4.5918 2.58213C4.59172 2.58704 4.59172 2.59499 4.5918 2.5999V3.2499H16.4043V2.5999C16.4043 1.53085 15.5149 0.649902 14.4355 0.649902H6.56055ZM2.62305 4.5499C1.54371 4.5499 0.654297 5.43085 0.654297 6.4999V14.2999C0.654297 15.369 1.54371 16.2499 2.62305 16.2499H3.27802V12.9974C3.27802 11.2306 4.7781 9.7499 6.56183 9.7499H14.4343C16.218 9.7499 17.7194 11.2306 17.7194 12.9974V16.2499H18.373C19.4524 16.2499 20.3418 15.369 20.3418 14.2999V6.4999C20.3418 5.43085 19.4524 4.5499 18.373 4.5499H2.62305ZM5.24933 6.4999H6.56183C7.43768 6.4999 7.43768 7.80117 6.56183 7.80117H5.24933C4.37347 7.80117 4.37347 6.4999 5.24933 6.4999ZM6.56183 11.0499C5.48251 11.0499 4.59052 11.9283 4.59052 12.9974V18.1999C4.59052 19.2689 5.4825 20.1524 6.56183 20.1524H14.4343C15.5136 20.1524 16.4056 19.2689 16.4056 18.1999V12.9974C16.4056 11.9283 15.5136 11.0499 14.4343 11.0499H6.56183Z" fill="white"/>
</svg>
