<svg width="30" height="30" viewBox="0 0 30 30" fill="none" xmlns="http://www.w3.org/2000/svg">
<path d="M28.9766 4.57828L15.4784 0.0788635C15.1671 -0.0262878 14.8298 -0.0262878 14.5185 0.0788635L1.02025 4.57828C0.722357 4.6789 0.463619 4.87059 0.280608 5.12627C0.0975972 5.38195 -0.000430355 5.68867 0.000381283 6.0031V11.6724C-0.0269815 15.9506 1.41918 20.1079 4.09582 23.4455C6.77246 26.7831 10.5164 29.0976 14.6985 30H14.9984H15.3284C19.5049 29.0916 23.242 26.7745 25.9127 23.4375C28.5834 20.1004 30.0253 15.9464 29.9965 11.6724V6.0031C29.9973 5.68867 29.8993 5.38195 29.7163 5.12627C29.5333 4.87059 29.2745 4.6789 28.9766 4.57828ZM26.9969 11.6724C27.0257 15.2078 25.8548 18.6485 23.6755 21.4325C21.4962 24.2166 18.4373 26.1794 14.9984 27.0004C11.5608 26.1769 8.50349 24.2135 6.32464 21.43C4.14579 18.6465 2.97391 15.2071 2.99999 11.6724V7.08296L14.9984 3.07848L26.9969 7.08296V11.6724Z" fill="#D64151"/>
<path d="M13.0636 10.9372C12.7812 10.6548 12.3981 10.4961 11.9987 10.4961C11.5993 10.4961 11.2163 10.6548 10.9339 10.9372C10.6515 11.2196 10.4928 11.6026 10.4928 12.002C10.4928 12.4014 10.6515 12.7845 10.9339 13.0669L12.8836 15.0016L10.9339 16.9364C10.7933 17.0758 10.6817 17.2417 10.6056 17.4245C10.5294 17.6072 10.4902 17.8033 10.4902 18.0013C10.4902 18.1993 10.5294 18.3953 10.6056 18.5781C10.6817 18.7608 10.7933 18.9267 10.9339 19.0661C11.0733 19.2067 11.2392 19.3183 11.4219 19.3944C11.6047 19.4706 11.8007 19.5098 11.9987 19.5098C12.1967 19.5098 12.3928 19.4706 12.5755 19.3944C12.7583 19.3183 12.9242 19.2067 13.0636 19.0661L14.9983 17.1164L16.9331 19.0661C17.0725 19.2067 17.2384 19.3183 17.4212 19.3944C17.6039 19.4706 17.8 19.5098 17.998 19.5098C18.196 19.5098 18.392 19.4706 18.5748 19.3944C18.7575 19.3183 18.9234 19.2067 19.0628 19.0661C19.2034 18.9267 19.315 18.7608 19.3911 18.5781C19.4673 18.3953 19.5065 18.1993 19.5065 18.0013C19.5065 17.8033 19.4673 17.6072 19.3911 17.4245C19.315 17.2417 19.2034 17.0758 19.0628 16.9364L17.1131 15.0016L19.0628 13.0669C19.3452 12.7845 19.5039 12.4014 19.5039 12.002C19.5039 11.6026 19.3452 11.2196 19.0628 10.9372C18.7804 10.6548 18.3974 10.4961 17.998 10.4961C17.5986 10.4961 17.2155 10.6548 16.9331 10.9372L14.9983 12.8869L13.0636 10.9372Z" fill="#D64151"/>
</svg>
