<svg id="Layer_1" data-name="Layer 1" xmlns="http://www.w3.org/2000/svg" viewBox="0 0 100 100"><defs><style>.cls-1{fill:#fdd67e;}.cls-2,.cls-3,.cls-4{fill:none;stroke:#000;}.cls-2,.cls-3{stroke-miterlimit:10;}.cls-3,.cls-4{stroke-linecap:round;}.cls-4{stroke-linejoin:round;}</style></defs><title>Nidhi icon</title><circle class="cls-1" cx="50" cy="50" r="44.34"/><rect class="cls-2" x="16.52" y="27.39" width="36" height="46" rx="6.15"/><line class="cls-3" x1="23.52" y1="48.39" x2="46.52" y2="48.39"/><line class="cls-3" x1="23.52" y1="53.39" x2="46.52" y2="53.39"/><line class="cls-3" x1="23.52" y1="58.39" x2="46.52" y2="58.39"/><line class="cls-3" x1="23.52" y1="63.39" x2="36.52" y2="63.39"/><rect class="cls-2" x="37.52" y="34.39" width="8" height="8" rx="1.8"/><path d="M55.5,63.79a.55.55,0,0,0-.55.55.54.54,0,0,0,.55.55h3.79a.55.55,0,0,0,.55-.55h0V63.11l16-1.53a6.92,6.92,0,0,0,3.35-1.25l6.9-4.92a1.52,1.52,0,0,0,.36-2.11,1.59,1.59,0,0,0-.49-.44l-1.13-.64a1.52,1.52,0,0,0-1.36-.07l-6.77,3H75.3l.51-.73a1.8,1.8,0,0,0-1.47-2.84h-8.1a2.77,2.77,0,0,0-1.88.73l-4.52,4.16v0a.55.55,0,0,0-.55-.55H55.5a.55.55,0,0,0-.55.55.54.54,0,0,0,.55.55h3.24v6.8Zm4.39-5.86,5.22-4.8a1.69,1.69,0,0,1,1.13-.44h8.1a.7.7,0,0,1,.7.7.66.66,0,0,1-.13.4l-1,1.37H68a.55.55,0,1,0,0,1.1h8.85a.59.59,0,0,0,.23,0L84,53.16a.44.44,0,0,1,.37,0l1.12.64a.42.42,0,0,1,0,.7l-6.9,4.91a5.74,5.74,0,0,1-2.82,1L59.84,62V58l0,0Z"/><circle class="cls-4" cx="71.52" cy="42.39" r="6"/><path class="cls-4" d="M70.52,39.39h2.07a.47.47,0,0,1,.37.75l-2.44,3.25,2,2"/><line class="cls-4" x1="70.52" y1="41.39" x2="73.52" y2="41.39"/></svg>