<svg id="Layer_1" data-name="Layer 1" xmlns="http://www.w3.org/2000/svg" viewBox="0 0 100 100"><defs><style>.cls-1{fill:#508aa6;}.cls-2,.cls-3,.cls-4,.cls-5{fill:none;stroke:#000;}.cls-2,.cls-3{stroke-miterlimit:10;}.cls-3{stroke-linecap:round;}.cls-4,.cls-5{stroke-linejoin:round;}.cls-4{stroke-width:1.18px;}.cls-5{stroke-width:0.75px;}</style></defs><title>Nidhi icon</title><circle class="cls-1" cx="50" cy="50" r="44.34"/><rect class="cls-2" x="18.8" y="27.39" width="36" height="46" rx="6.15"/><line class="cls-3" x1="25.3" y1="46.39" x2="48.3" y2="46.39"/><line class="cls-3" x1="25.3" y1="51.39" x2="48.3" y2="51.39"/><line class="cls-3" x1="25.3" y1="56.39" x2="48.3" y2="56.39"/><line class="cls-3" x1="25.3" y1="61.39" x2="38.3" y2="61.39"/><rect class="cls-2" x="39.8" y="34.39" width="8" height="8" rx="1.8"/><path d="M57.77,63.79a.55.55,0,0,0-.55.55.55.55,0,0,0,.55.55h3.8a.55.55,0,0,0,.55-.55h0V63.11l16-1.53a6.92,6.92,0,0,0,3.36-1.25l6.9-4.92a1.51,1.51,0,0,0,.35-2.11,1.48,1.48,0,0,0-.49-.44l-1.12-.64a1.52,1.52,0,0,0-1.36-.07l-6.78,3H77.57l.52-.73a1.81,1.81,0,0,0-.43-2.51,1.83,1.83,0,0,0-1-.33h-8.1a2.77,2.77,0,0,0-1.88.73l-4.52,4.16v0a.55.55,0,0,0-.55-.55h-3.8a.55.55,0,0,0-.55.55.55.55,0,0,0,.55.55H61v6.8Zm4.39-5.86,5.23-4.8a1.67,1.67,0,0,1,1.13-.44h8.1a.7.7,0,0,1,.7.7.73.73,0,0,1-.13.4l-1,1.37h-6a.55.55,0,1,0,0,1.1h8.86a.54.54,0,0,0,.22,0l6.88-3.05a.46.46,0,0,1,.38,0l1.12.64a.42.42,0,0,1,0,.7l-6.9,4.91a5.78,5.78,0,0,1-2.82,1L62.12,62V58l0,0Z"/><rect class="cls-4" x="65.31" y="39.47" width="9.48" height="9.48"/><polygon class="cls-4" points="81.66 46.58 74.84 48.95 74.84 39.47 81.66 37.1 81.66 46.58"/><polygon class="cls-5" points="74.71 38.99 65.19 39.05 72.21 36.66 81.66 36.88 74.71 38.99"/></svg>