<svg width="58" height="83" viewBox="0 0 58 83" fill="none" xmlns="http://www.w3.org/2000/svg">
<path d="M51.8025 82.2029H5.30252C2.37307 82.2029 0 79.8207 0 76.8836V11.0708C0 8.13269 2.37307 5.75049 5.30252 5.75049H51.8025C54.733 5.75049 57.1061 8.13269 57.1061 11.0708V76.8836C57.1061 79.8207 54.733 82.2029 51.8025 82.2029Z" fill="#F68E00"/>
<path d="M51.8128 75.0275H5.29492V12.9268H51.8128V75.0275Z" fill="#E7E8E6"/>
<path d="M43.1306 15.0612H13.9746V4.13714C13.9746 1.85304 15.82 0 18.098 0H39.0061C41.2852 0 43.1306 1.85304 43.1306 4.13714V15.0612Z" fill="#101A73"/>
<path d="M25.1209 2.52295H20.6648C19.3234 2.52295 18.2363 3.61397 18.2363 4.95867C18.2363 6.30337 19.3234 7.39241 20.6648 7.39241H25.1209V2.52295Z" fill="white"/>
<path d="M36.4424 2.52295H31.9863V7.39241H36.4424C37.7839 7.39241 38.8709 6.30337 38.8709 4.95867C38.8709 3.61397 37.7839 2.52295 36.4424 2.52295Z" fill="white"/>
<path d="M26.1973 25.8506H44.762" stroke="#192746" stroke-width="1.54217" stroke-miterlimit="10" stroke-linecap="round"/>
<path d="M26.1973 33.6265H44.762" stroke="#192746" stroke-width="1.54217" stroke-miterlimit="10" stroke-linecap="round"/>
<path d="M26.1973 41.4033H44.762" stroke="#192746" stroke-width="1.54217" stroke-miterlimit="10" stroke-linecap="round"/>
<path d="M26.1973 49.1792H44.762" stroke="#192746" stroke-width="1.54217" stroke-miterlimit="10" stroke-linecap="round"/>
<path d="M26.1973 56.9551H44.762" stroke="#192746" stroke-width="1.54217" stroke-miterlimit="10" stroke-linecap="round"/>
<path d="M26.1973 64.7329H44.762" stroke="#192746" stroke-width="1.54217" stroke-miterlimit="10" stroke-linecap="round"/>
<path d="M17.3636 32.6504H10.584V25.8506H17.3636V32.6504Z" stroke="#192746" stroke-width="1.54217" stroke-miterlimit="10" stroke-linecap="round" stroke-linejoin="round"/>
<path d="M17.3636 48.2021H10.584V41.4034H17.3636V48.2021Z" stroke="#192746" stroke-width="1.54217" stroke-miterlimit="10" stroke-linecap="round" stroke-linejoin="round"/>
<path d="M17.3636 63.7544H10.584V56.9546H17.3636V63.7544Z" stroke="#192746" stroke-width="1.54217" stroke-miterlimit="10" stroke-linecap="round" stroke-linejoin="round"/>
<path d="M12.2695 28.0338L14.8891 30.5537L20.7866 20.4769" stroke="#D64151" stroke-width="1.54217" stroke-miterlimit="10" stroke-linecap="round" stroke-linejoin="round"/>
<path d="M12.2695 43.6085L14.8891 46.1274L20.7866 36.0507" stroke="#D64151" stroke-width="1.54217" stroke-miterlimit="10" stroke-linecap="round" stroke-linejoin="round"/>
<path d="M12.2695 59.1817L14.8891 61.7017L20.7866 51.6249" stroke="#D64151" stroke-width="1.54217" stroke-miterlimit="10" stroke-linecap="round" stroke-linejoin="round"/>
</svg>
