<svg id="Layer_1" data-name="Layer 1" xmlns="http://www.w3.org/2000/svg" xmlns:xlink="http://www.w3.org/1999/xlink" viewBox="0 0 200 200"><defs><style>.cls-1{fill:none;}.cls-2{clip-path:url(#clip-path);}.cls-3{fill:#efd7ad;}.cls-4{fill:#d6e6ee;}.cls-5{fill:#ffcc63;}.cls-6{fill:#f0a921;}.cls-7{fill:#fdd480;}.cls-8{opacity:0.42;}.cls-9{fill:#84a9ba;}.cls-10{fill:#fff;}.cls-11{fill:#4a4546;}.cls-12{fill:#8f9093;}.cls-13{fill:#3e3a3b;}</style><clipPath id="clip-path"><circle class="cls-1" cx="100" cy="100" r="69.2"/></clipPath></defs><title>Nidhi icon</title><g class="cls-2"><path class="cls-3" d="M146.86,107.18c-2,6.48-4.43,15.6-6,16.87-2.16,1.79-17.51,12.94-18.24,13.46.31-.34,4-4.44,7-8l0,0c.72-.66,10.05-9.23,10.11-9.75s2-12.82,2.88-16.56,4-3.62,4.23-3S146.86,107.18,146.86,107.18Z"/><path class="cls-3" d="M123.26,136c8.52-7.13,17-12.8,17.36-13.44s6.85-23.14,10-25.12c3.33-2.09,5.17-.89,5,1.1S148,127.84,148,127.84l-26.22,14.61-.31-3.66Z"/><path class="cls-3" d="M129.62,129.48c-3,3.59-6.64,7.69-7,8,.73-.52,16.08-11.67,18.24-13.46,1.52-1.27,4-10.39,6-16.87a33.16,33.16,0,0,1,2.27-6.19c1.83-2.82,5.15-2.57,5.39-1.72s-3.43,25.76-4.29,28.45-22.07,27.71-23.17,29.92,0,24.89,0,24.89l-23,.87s.34-17.5,0-21.59-3.27-16.18,2.79-23.87,23.71-19.62,25.18-19.29,3.22,3.43.53,7.12c-.72,1-1.78,2.3-2.94,3.68Z"/><polygon class="cls-3" points="127.13 121.2 128.81 122.85 132.47 120.69 128.81 123.73 126.72 121.47 127.13 121.2"/><polygon class="cls-3" points="153.62 99.66 153.25 103.21 154.11 103.46 154.06 103.82 152.79 103.49 153.62 99.66"/><path class="cls-3" d="M50.79,107.18c2,6.48,4.43,15.6,6,16.87C58.9,125.84,74.25,137,75,137.51c-.31-.34-4-4.44-6.94-8l0,0c-.72-.66-10.05-9.23-10.11-9.75s-2-12.82-2.88-16.56-4-3.62-4.23-3S50.79,107.18,50.79,107.18Z"/><path class="cls-3" d="M74.4,136c-8.53-7.13-17.05-12.8-17.36-13.44S50.18,99.4,47,97.42c-3.32-2.09-5.17-.89-5,1.1s7.64,29.32,7.64,29.32l26.22,14.61.31-3.66Z"/><path class="cls-3" d="M68,129.48c3,3.59,6.63,7.69,6.94,8-.73-.52-16.08-11.67-18.24-13.46-1.52-1.27-4-10.39-6-16.87A33.35,33.35,0,0,0,48.53,101c-1.84-2.82-5.16-2.57-5.4-1.72s3.43,25.76,4.29,28.45S69.5,155.43,70.6,157.64s0,24.89,0,24.89l23,.87s-.33-17.5,0-21.59,3.27-16.18-2.79-23.87-23.7-19.62-25.17-19.29-3.23,3.43-.54,7.12c.73,1,1.78,2.3,2.94,3.68Z"/><polygon class="cls-3" points="70.52 121.2 68.84 122.85 65.18 120.69 68.84 123.73 70.93 121.47 70.52 121.2"/><polygon class="cls-3" points="44.04 99.66 44.41 103.21 43.55 103.46 43.59 103.82 44.87 103.49 44.04 99.66"/><polygon class="cls-4" points="99 87.29 98.77 87.16 62.04 108.51 62.04 108.58 98.65 129.72 98.88 129.85 135.61 108.51 135.61 108.43 99 87.29"/><path class="cls-5" d="M84.7,86.44c3.54-2,6.41-.39,6.41,3.69a14.15,14.15,0,0,1-6.41,11.1c-3.54,2-6.4.39-6.4-3.7A14.13,14.13,0,0,1,84.7,86.44Zm5.48,4.23c0-3.5-2.45-4.91-5.48-3.17A12.11,12.11,0,0,0,79.22,97c0,3.49,2.45,4.91,5.48,3.16A12.11,12.11,0,0,0,90.18,90.67Z"/><path class="cls-6" d="M84.7,87.5c3-1.74,5.48-.33,5.48,3.17a12.11,12.11,0,0,1-5.48,9.49c-3,1.75-5.48.33-5.48-3.16A12.11,12.11,0,0,1,84.7,87.5Zm5.09,3.39c0-3.24-2.28-4.56-5.09-2.94a11.27,11.27,0,0,0-5.09,8.82c0,3.25,2.28,4.57,5.09,2.94A11.25,11.25,0,0,0,89.79,90.89Z"/><path class="cls-7" d="M84.7,88c2.81-1.62,5.09-.3,5.09,2.94a11.25,11.25,0,0,1-5.09,8.82c-2.81,1.63-5.09.31-5.09-2.94A11.27,11.27,0,0,1,84.7,88Zm4.4,3.35c0-2.81-2-3.94-4.4-2.54a9.73,9.73,0,0,0-4.39,7.61c0,2.8,2,3.94,4.39,2.54A9.71,9.71,0,0,0,89.1,91.3Z"/><path class="cls-5" d="M84.7,88.76c2.43-1.4,4.4-.27,4.4,2.54a9.71,9.71,0,0,1-4.4,7.61c-2.42,1.4-4.39.26-4.39-2.54A9.73,9.73,0,0,1,84.7,88.76Z"/><path class="cls-6" d="M87.48,85c-1.16-.67-2.78-.58-4.56.45a14.06,14.06,0,0,0-6.38,11.06c0,2,.72,3.44,1.87,4.11l1.76,1C79,101,78.3,99.55,78.3,97.53a14.06,14.06,0,0,1,6.38-11.06c1.78-1,3.39-1.12,4.56-.45Z"/><path class="cls-5" d="M76.6,95.51c0,.13,0,.26,0,.39l1.76,1c0-.13,0-.26,0-.39Z"/><path class="cls-5" d="M76.75,94.49c0,.13,0,.25-.07.37l1.76,1c0-.13,0-.25.07-.37Z"/><path class="cls-5" d="M77.65,91.7c-.05.11-.09.22-.14.34l1.76,1c0-.11.09-.23.14-.34Z"/><path class="cls-5" d="M77,93.53c0,.12-.07.23-.1.35l1.76,1c0-.11.06-.23.1-.35Z"/><path class="cls-5" d="M77.29,92.6l-.12.34,1.76,1c0-.11.07-.23.12-.34Z"/><path class="cls-5" d="M76.54,96.58c0,.14,0,.28,0,.42l1.76,1c0-.14,0-.27,0-.42Z"/><path class="cls-5" d="M86.33,84.61a3.19,3.19,0,0,0-.76,0l1.76,1a4.74,4.74,0,0,1,.76,0Z"/><path class="cls-5" d="M76.65,97.74c0,.17.06.32.1.48l1.76,1a3.71,3.71,0,0,1-.1-.48Z"/><path class="cls-5" d="M79.19,100.74a4,4,0,0,1-.38-.64l-1.76-1a3.9,3.9,0,0,0,.38.63Z"/><path class="cls-5" d="M80.92,87l-.26.26,1.76,1,.26-.26Z"/><path class="cls-5" d="M83.48,85.16l-.38.19,1.76,1,.38-.19Z"/><path class="cls-5" d="M82.52,85.71l-.33.22L84,87l.33-.22Z"/><path class="cls-5" d="M84.64,84.73a4.19,4.19,0,0,0-.47.14l1.76,1,.47-.14Z"/><path class="cls-5" d="M81.67,86.32c-.1.07-.19.16-.29.24l1.76,1,.29-.24Z"/><path class="cls-5" d="M78.06,90.84c0,.11-.1.21-.16.32l1.76,1c0-.11.11-.21.16-.32Z"/><path class="cls-5" d="M78.53,90l-.18.3,1.76,1,.18-.31Z"/><path class="cls-5" d="M79.05,89.2l-.21.3,1.76,1,.2-.29Z"/><path class="cls-5" d="M80.24,87.69A2.91,2.91,0,0,0,80,88l1.75,1,.24-.27Z"/><path class="cls-5" d="M79.61,88.43c-.07.1-.15.19-.22.28l1.76,1,.22-.29Z"/><path class="cls-6" d="M128.7,101.35v1.94c0,1.26-.84,2.53-2.5,3.49a13.35,13.35,0,0,1-12.15,0c-1.7-1-2.55-2.26-2.54-3.54V101.3c0,1.28.85,2.57,2.54,3.55a13.43,13.43,0,0,0,12.16,0C127.87,103.88,128.7,102.62,128.7,101.35Z"/><path class="cls-5" d="M125.27,97.6c3.8,1.61,4.56,4.66,1.7,6.8s-8.23,2.58-12,1-4.56-4.66-1.71-6.81S121.48,96,125.27,97.6ZM126,104c2.45-1.83,1.79-4.44-1.45-5.82s-7.85-1-10.3.82-1.79,4.45,1.46,5.83S123.54,105.82,126,104Z"/><path class="cls-6" d="M124.53,98.16c3.24,1.38,3.9,4,1.45,5.82s-7,2.21-10.29.83-3.9-4-1.46-5.83S121.28,96.78,124.53,98.16Zm1,5.65c2.26-1.71,1.66-4.13-1.36-5.41s-7.29-.94-9.56.76-1.66,4.13,1.35,5.41S123.3,105.51,125.57,103.81Z"/><path class="cls-7" d="M124.21,98.4c3,1.28,3.62,3.7,1.36,5.41s-6.55,2-9.57.76-3.62-3.7-1.35-5.41S121.2,97.11,124.21,98.4Zm.61,5.09c2-1.47,1.43-3.57-1.17-4.67s-6.29-.81-8.25.66-1.43,3.56,1.17,4.67S122.86,105,124.82,103.49Z"/><path class="cls-5" d="M123.65,98.82c2.6,1.1,3.13,3.2,1.17,4.67s-5.65,1.76-8.25.66-3.13-3.2-1.17-4.67S121.05,97.71,123.65,98.82Z"/><path class="cls-5" d="M116.64,105.87l-.34-.09v1.93l.34.1Z"/><path class="cls-5" d="M118.45,106.21l-.33,0v1.93l.34,0Z"/><path class="cls-5" d="M114.48,107l.34.17v-1.94a3.59,3.59,0,0,1-.34-.17Z"/><path class="cls-5" d="M119.36,106.28l-.34,0v1.93l.34,0Z"/><path class="cls-5" d="M128.44,102.56a3.36,3.36,0,0,1-.34.61v1.94a4.66,4.66,0,0,0,.34-.61Z"/><path class="cls-5" d="M126.28,106.73l.34-.21v-1.94l-.34.22Z"/><path class="cls-5" d="M115.74,105.6l-.34-.12v1.94l.34.11Z"/><path class="cls-5" d="M127.19,104.16v1.93l.34-.3v-1.94A3.39,3.39,0,0,1,127.19,104.16Z"/><path class="cls-5" d="M120.26,108.24V106.3h-.34v1.93Z"/><path class="cls-5" d="M117.55,106.07l-.34-.07v1.94l.34.07Z"/><path class="cls-5" d="M111.77,104.47a3.65,3.65,0,0,0,.34.6v-1.93a4,4,0,0,1-.33-.61Z"/><path class="cls-5" d="M113,106.06v-1.94l-.34-.3v1.93Z"/><path class="cls-5" d="M113.92,104.77l-.34-.22v1.94l.34.21Z"/><path class="cls-5" d="M125.71,105.1l-.34.16v1.94l.34-.16Z"/><path class="cls-5" d="M123,106l-.34.07V108L123,108Z"/><path class="cls-5" d="M124.81,105.5l-.34.12v1.93l.34-.11Z"/><path class="cls-5" d="M122.08,106.17l-.34,0v1.93l.34,0Z"/><path class="cls-5" d="M121.18,106.26l-.34,0v1.94l.34,0Z"/><path class="cls-5" d="M123.9,105.8l-.34.09v1.93a3.37,3.37,0,0,0,.34-.09Z"/><path class="cls-6" d="M107.42,97.07V99c0,1.27-.84,2.53-2.5,3.5a13.41,13.41,0,0,1-12.15,0c-1.7-1-2.55-2.26-2.54-3.55V97c0,1.28.85,2.56,2.54,3.54a13.37,13.37,0,0,0,12.16,0C106.59,99.6,107.42,98.33,107.42,97.07Z"/><path class="cls-5" d="M104,93.32c3.8,1.61,4.56,4.66,1.7,6.8s-8.23,2.58-12,1-4.56-4.65-1.71-6.8S100.2,91.7,104,93.32Zm.71,6.38c2.45-1.84,1.79-4.44-1.45-5.82s-7.85-1-10.3.82-1.79,4.44,1.46,5.82S102.26,101.54,104.7,99.7Z"/><path class="cls-6" d="M103.25,93.88c3.24,1.38,3.9,4,1.45,5.82s-7,2.21-10.29.82-3.9-4-1.46-5.82S100,92.5,103.25,93.88Zm1,5.64c2.26-1.7,1.66-4.12-1.36-5.41s-7.29-.94-9.56.77-1.66,4.13,1.35,5.41S102,101.23,104.29,99.52Z"/><path class="cls-7" d="M102.93,94.11c3,1.29,3.62,3.71,1.36,5.41s-6.55,2-9.57.77-3.62-3.71-1.35-5.41S99.92,92.83,102.93,94.11Zm.61,5.1c2-1.48,1.43-3.57-1.17-4.67s-6.29-.81-8.25.66-1.43,3.56,1.17,4.67S101.58,100.68,103.54,99.21Z"/><path class="cls-5" d="M102.37,94.54c2.6,1.1,3.13,3.19,1.17,4.67s-5.65,1.76-8.25.66-3.13-3.2-1.17-4.67S99.77,93.43,102.37,94.54Z"/><path class="cls-6" d="M101.33,96.28c.41.37.31.76-.21,1.15l-.08.06-.71-.3q.44-.33.33-.6l-1.27.6c.79.46,1,.85.44,1.27l0,0a2.71,2.71,0,0,1-2.7.06l-.31-.14-.79.37-.58-.25.92-.43c-.4-.38-.33-.78.16-1.15l0,0,.71.31c-.25.19-.33.38-.24.56l1.33-.62c-.8-.48-.9-.87-.4-1.24l0,0a2.76,2.76,0,0,1,2.65,0l.25.12.79-.37.58.25Zm-2.44.62,1.37-.64a.31.31,0,0,0-.1-.05l0,0a1.54,1.54,0,0,0-1.41,0l0,0C98.42,96.41,98.44,96.61,98.89,96.9ZM99,98.2l0,0c.3-.22.22-.44-.23-.73l-1.45.68.16.08h0A1.54,1.54,0,0,0,99,98.2Z"/><path class="cls-5" d="M95.36,101.59,95,101.5v1.93l.34.09Z"/><path class="cls-5" d="M97.17,101.92l-.33,0v1.93l.34,0Z"/><path class="cls-5" d="M93.2,102.73l.34.16V101l-.34-.17Z"/><path class="cls-5" d="M98.08,102l-.34,0v1.94l.34,0Z"/><path class="cls-5" d="M107.16,98.28a3.36,3.36,0,0,1-.34.61v1.94a4.66,4.66,0,0,0,.34-.61Z"/><path class="cls-5" d="M105,102.45l.34-.21V100.3l-.34.22Z"/><path class="cls-5" d="M94.46,101.31l-.34-.11v1.93c.11.05.23.08.34.12Z"/><path class="cls-5" d="M105.91,99.88v1.93l.34-.3V99.57Z"/><path class="cls-5" d="M99,104V102h-.34V104Z"/><path class="cls-5" d="M96.27,101.79l-.34-.07v1.94l.34.06Z"/><path class="cls-5" d="M90.49,100.18a3.36,3.36,0,0,0,.34.61V98.86a4.56,4.56,0,0,1-.33-.61Z"/><path class="cls-5" d="M91.73,101.78V99.84l-.34-.31v1.94Z"/><path class="cls-5" d="M92.64,100.49l-.34-.22v1.94l.34.21Z"/><path class="cls-5" d="M104.43,100.82l-.34.16v1.94l.34-.16Z"/><path class="cls-5" d="M101.71,101.73l-.34.07v1.94l.33-.07Z"/><path class="cls-5" d="M103.53,101.22l-.34.12v1.93l.34-.11Z"/><path class="cls-5" d="M100.8,101.89l-.34,0v1.94l.34-.05Z"/><path class="cls-5" d="M99.9,102l-.34,0v1.94l.34,0Z"/><path class="cls-5" d="M102.62,101.51l-.34.1v1.93l.34-.09Z"/><path class="cls-6" d="M114.78,95.54v1.94c0,1.26-.83,2.53-2.49,3.49a13.37,13.37,0,0,1-12.16,0c-1.69-1-2.54-2.26-2.54-3.54V95.49c0,1.28.84,2.57,2.54,3.55a13.41,13.41,0,0,0,12.15,0C113.94,98.07,114.78,96.81,114.78,95.54Z"/><path class="cls-5" d="M111.35,91.79c3.79,1.61,4.55,4.66,1.7,6.81s-8.24,2.57-12,1-4.55-4.66-1.7-6.81S107.56,90.18,111.35,91.79Zm.71,6.38c2.44-1.83,1.79-4.44-1.46-5.82s-7.85-1-10.29.82-1.79,4.45,1.46,5.83S109.62,100,112.06,98.17Z"/><path class="cls-6" d="M110.6,92.35c3.25,1.38,3.9,4,1.46,5.82s-7,2.21-10.29.83-3.9-4-1.46-5.83S107.36,91,110.6,92.35Zm1,5.65c2.27-1.71,1.66-4.13-1.35-5.41s-7.3-.94-9.56.76-1.66,4.13,1.35,5.41S109.37,99.7,111.64,98Z"/><path class="cls-7" d="M110.29,92.59c3,1.28,3.62,3.7,1.35,5.41s-6.55,2-9.56.76-3.62-3.7-1.35-5.41S107.27,91.3,110.29,92.59Zm.6,5.09c2-1.47,1.44-3.56-1.16-4.67s-6.3-.81-8.26.66-1.43,3.56,1.17,4.67S108.94,99.15,110.89,97.68Z"/><path class="cls-5" d="M109.73,93c2.6,1.11,3.12,3.2,1.16,4.67s-5.65,1.77-8.25.66-3.12-3.2-1.17-4.67S107.13,91.9,109.73,93Z"/><path class="cls-6" d="M108.68,94.76c.41.36.32.75-.2,1.15l-.08.06-.72-.31c.29-.22.41-.42.34-.59l-1.27.59c.79.46,1,.86.43,1.28l0,0a2.72,2.72,0,0,1-2.69.06l-.32-.15-.78.37-.58-.24.92-.43c-.4-.39-.34-.79.15-1.16l0,0,.71.3c-.25.19-.34.39-.25.57l1.34-.63c-.81-.48-.9-.86-.41-1.23l0,0a2.79,2.79,0,0,1,2.65,0l.26.12.78-.36.58.24Zm-2.43.61,1.37-.64-.11,0h0a1.54,1.54,0,0,0-1.42,0l0,0C105.78,94.88,105.79,95.09,106.25,95.37Zm.13,1.3,0,0c.3-.22.22-.44-.23-.73l-1.46.69.16.07h0A1.49,1.49,0,0,0,106.38,96.67Z"/><path class="cls-5" d="M102.72,100.06l-.34-.09v1.94l.34.09Z"/><path class="cls-5" d="M104.53,100.4l-.34-.05v1.94l.33,0Z"/><path class="cls-5" d="M100.56,101.2l.34.17V99.43l-.33-.16Z"/><path class="cls-5" d="M105.44,100.47l-.34,0v1.93l.34,0Z"/><path class="cls-5" d="M114.52,96.75a4.09,4.09,0,0,1-.34.61V99.3a3.36,3.36,0,0,0,.34-.61Z"/><path class="cls-5" d="M112.35,100.93l.34-.22V98.78l-.34.21Z"/><path class="cls-5" d="M101.81,99.79l-.34-.12v1.94l.33.11Z"/><path class="cls-5" d="M113.27,98.35v1.94l.34-.31V98Z"/><path class="cls-5" d="M106.34,102.43v-1.94H106v1.94Z"/><path class="cls-5" d="M103.62,100.26l-.34-.07v1.94l.34.07Z"/><path class="cls-5" d="M97.85,98.66a3.93,3.93,0,0,0,.33.6V97.33a3.36,3.36,0,0,1-.34-.61Z"/><path class="cls-5" d="M99.09,100.25V98.32L98.76,98v1.93A3.39,3.39,0,0,0,99.09,100.25Z"/><path class="cls-5" d="M100,99l-.34-.22v1.94l.34.21Z"/><path class="cls-5" d="M111.79,99.3l-.34.16v1.93l.34-.16Z"/><path class="cls-5" d="M109.07,100.21l-.34.07v1.93l.34-.07Z"/><path class="cls-5" d="M110.88,99.69c-.11,0-.23.08-.34.12v1.94l.34-.12Z"/><path class="cls-5" d="M108.16,100.36l-.34,0v1.93l.34,0Z"/><path class="cls-5" d="M107.25,100.45l-.34,0v1.93l.34,0Z"/><path class="cls-5" d="M110,100l-.34.09V102l.34-.1Z"/><path class="cls-6" d="M108.89,92V93.9c0,1.26-.83,2.53-2.49,3.49a13.37,13.37,0,0,1-12.16,0c-1.69-1-2.54-2.26-2.54-3.54V91.91c0,1.28.84,2.57,2.54,3.55a13.41,13.41,0,0,0,12.15,0C108.05,94.49,108.89,93.23,108.89,92Z"/><path class="cls-5" d="M105.46,88.21c3.79,1.61,4.55,4.66,1.7,6.8s-8.24,2.58-12,1-4.55-4.66-1.7-6.81S101.66,86.6,105.46,88.21Zm.71,6.38c2.44-1.83,1.79-4.44-1.46-5.82s-7.85-1-10.29.82S92.63,94,95.87,95.42,103.73,96.43,106.17,94.59Z"/><path class="cls-6" d="M104.71,88.77c3.25,1.38,3.9,4,1.46,5.82s-7,2.21-10.3.83-3.89-4-1.45-5.83S101.47,87.39,104.71,88.77Zm1,5.65c2.27-1.71,1.66-4.13-1.35-5.41s-7.3-.94-9.56.76-1.67,4.13,1.35,5.41S103.48,96.12,105.75,94.42Z"/><path class="cls-7" d="M104.4,89c3,1.28,3.62,3.7,1.35,5.41s-6.55,2-9.56.76-3.62-3.7-1.35-5.41S101.38,87.72,104.4,89Zm.6,5.09c2-1.47,1.44-3.56-1.16-4.67s-6.3-.81-8.26.66-1.43,3.56,1.17,4.67S103.05,95.57,105,94.1Z"/><ellipse class="cls-5" cx="100.29" cy="92.09" rx="5.89" ry="3.33"/><path class="cls-5" d="M96.83,96.48l-.34-.09v1.93l.34.1Z"/><path class="cls-5" d="M98.64,96.82l-.34,0v1.94l.34,0Z"/><path class="cls-5" d="M94.67,97.62l.34.17V95.85l-.34-.17Z"/><path class="cls-5" d="M99.55,96.89l-.34,0V98.8l.34,0Z"/><path class="cls-5" d="M108.63,93.17a4.09,4.09,0,0,1-.34.61v1.94a3.73,3.73,0,0,0,.34-.61Z"/><path class="cls-5" d="M106.46,97.34l.34-.21V95.19l-.34.22Z"/><path class="cls-5" d="M95.92,96.21l-.34-.12V98l.33.11Z"/><path class="cls-5" d="M107.38,94.77V96.7l.34-.3V94.46Z"/><path class="cls-5" d="M100.45,98.85V96.91h-.34v1.93Z"/><path class="cls-5" d="M97.73,96.68l-.34-.07v1.94l.34.07Z"/><path class="cls-5" d="M92,95.08a3.57,3.57,0,0,0,.33.6V93.75a3.36,3.36,0,0,1-.34-.61Z"/><path class="cls-5" d="M93.2,96.67V94.73l-.34-.3v1.93A3.39,3.39,0,0,0,93.2,96.67Z"/><path class="cls-5" d="M94.11,95.38l-.34-.22V97.1l.34.21Z"/><path class="cls-5" d="M105.9,95.71l-.34.16v1.94l.34-.16Z"/><path class="cls-5" d="M103.17,96.63l-.33.07v1.93l.34-.07Z"/><path class="cls-5" d="M105,96.11l-.34.12v1.94l.34-.12Z"/><path class="cls-5" d="M102.27,96.78l-.34,0v1.93l.34,0Z"/><path class="cls-5" d="M101.36,96.87l-.34,0v1.94l.34,0Z"/><path class="cls-5" d="M104.08,96.41l-.34.09v1.93l.34-.09Z"/><path class="cls-6" d="M86.1,105.72v1.93c0,1.27-.84,2.53-2.5,3.5a13.43,13.43,0,0,1-12.16,0c-1.69-1-2.54-2.26-2.53-3.54v-1.94c0,1.28.84,2.57,2.54,3.54a13.35,13.35,0,0,0,12.15,0C85.27,108.25,86.1,107,86.1,105.72Z"/><path class="cls-5" d="M82.67,102c3.79,1.61,4.56,4.66,1.7,6.8s-8.23,2.58-12,1-4.55-4.66-1.7-6.81S78.88,100.35,82.67,102Zm.71,6.38c2.44-1.83,1.79-4.44-1.45-5.82s-7.86-1-10.3.82-1.79,4.44,1.46,5.83S80.94,110.19,83.38,108.35Z"/><path class="cls-6" d="M81.93,102.53c3.24,1.38,3.89,4,1.45,5.82s-7,2.21-10.29.83-3.9-4-1.46-5.83S78.68,101.15,81.93,102.53Zm1,5.64c2.27-1.7,1.67-4.12-1.35-5.41s-7.29-.94-9.56.77-1.66,4.13,1.35,5.41S80.7,109.88,83,108.17Z"/><path class="cls-7" d="M81.61,102.76c3,1.29,3.62,3.71,1.35,5.41s-6.54,2-9.56.77-3.62-3.7-1.35-5.41S78.6,101.48,81.61,102.76Zm.61,5.1c2-1.48,1.43-3.57-1.17-4.67s-6.3-.81-8.25.66-1.44,3.56,1.16,4.67S80.26,109.33,82.22,107.86Z"/><path class="cls-5" d="M81.05,103.19c2.6,1.1,3.12,3.19,1.17,4.67s-5.65,1.76-8.26.66-3.12-3.2-1.16-4.67S78.45,102.08,81.05,103.19Z"/><path class="cls-5" d="M74,110.24l-.34-.09v1.93l.34.09Z"/><path class="cls-5" d="M75.85,110.58l-.34,0v1.93l.34.05Z"/><path class="cls-5" d="M71.88,111.38l.34.16v-1.93a3.59,3.59,0,0,1-.34-.17Z"/><path class="cls-5" d="M76.76,110.65l-.34,0v1.93l.34,0Z"/><path class="cls-5" d="M85.84,106.93a3.36,3.36,0,0,1-.34.61v1.94a3.73,3.73,0,0,0,.34-.61Z"/><path class="cls-5" d="M83.68,111.1l.33-.21V109l-.34.22Z"/><path class="cls-5" d="M73.13,110l-.34-.12v1.93a3.4,3.4,0,0,0,.34.12Z"/><path class="cls-5" d="M84.59,108.53v1.93c.12-.1.24-.2.34-.3v-1.94Z"/><path class="cls-5" d="M77.66,112.6v-1.93h-.34v1.93C77.43,112.6,77.55,112.61,77.66,112.6Z"/><path class="cls-5" d="M75,110.44l-.34-.07v1.94l.34.06Z"/><path class="cls-5" d="M69.17,108.83a3.36,3.36,0,0,0,.34.61v-1.93a4.66,4.66,0,0,1-.34-.61Z"/><path class="cls-5" d="M70.41,110.43v-1.94a3.39,3.39,0,0,1-.34-.31v1.94Z"/><path class="cls-5" d="M71.32,109.14l-.34-.22v1.94l.34.21Z"/><path class="cls-5" d="M83.11,109.47l-.34.16v1.94l.34-.16Z"/><path class="cls-5" d="M80.39,110.39l-.34.06v1.94l.34-.07Z"/><path class="cls-5" d="M82.2,109.87l-.34.12v1.93l.34-.11Z"/><path class="cls-5" d="M79.48,110.54l-.34,0v1.94l.34,0Z"/><path class="cls-5" d="M78.57,110.63l-.34,0v1.94l.34,0Z"/><path class="cls-5" d="M81.3,110.17l-.34.09v1.93l.34-.09Z"/><path class="cls-6" d="M119.13,112.84v1.94c0,1.26-.83,2.53-2.5,3.49a13.35,13.35,0,0,1-12.15,0c-1.7-1-2.54-2.26-2.54-3.54v-1.94c0,1.29.84,2.57,2.53,3.55a13.43,13.43,0,0,0,12.16,0C118.29,115.37,119.12,114.11,119.13,112.84Z"/><path class="cls-5" d="M115.7,109.09c3.79,1.62,4.55,4.66,1.7,6.81s-8.24,2.57-12,1-4.56-4.66-1.7-6.81S111.9,107.48,115.7,109.09Zm.71,6.39c2.44-1.84,1.79-4.45-1.46-5.83s-7.85-1-10.29.83-1.79,4.44,1.45,5.82S114,117.31,116.41,115.48Z"/><path class="cls-6" d="M115,109.65c3.25,1.38,3.9,4,1.46,5.83s-7,2.2-10.3.82-3.89-4-1.45-5.82S111.71,108.27,115,109.65Zm1,5.65c2.27-1.71,1.66-4.13-1.35-5.41s-7.3-.94-9.56.76-1.67,4.13,1.35,5.41S113.72,117,116,115.3Z"/><path class="cls-7" d="M114.64,109.89c3,1.28,3.62,3.7,1.35,5.41s-6.55,2-9.56.76-3.62-3.7-1.35-5.41S111.62,108.61,114.64,109.89Zm.6,5.09c2-1.47,1.44-3.56-1.17-4.67s-6.29-.81-8.25.66-1.43,3.56,1.17,4.67S113.29,116.45,115.24,115Z"/><path class="cls-5" d="M114.07,110.31c2.61,1.11,3.13,3.2,1.17,4.67s-5.65,1.77-8.25.66-3.12-3.2-1.17-4.67S111.47,109.2,114.07,110.31Z"/><path class="cls-5" d="M107.06,117.36l-.33-.09v1.94l.34.09Z"/><path class="cls-5" d="M108.88,117.7l-.34,0v1.94l.34,0Z"/><path class="cls-5" d="M104.91,118.5a3.59,3.59,0,0,0,.34.17v-1.94l-.34-.16Z"/><path class="cls-5" d="M109.78,117.78l-.34,0v1.94l.34,0Z"/><path class="cls-5" d="M118.87,114.05a4.26,4.26,0,0,1-.35.62v1.93a3.36,3.36,0,0,0,.34-.61Z"/><path class="cls-5" d="M116.7,118.23,117,118v-1.93l-.34.21Z"/><path class="cls-5" d="M106.16,117.09c-.11,0-.23-.07-.34-.12v1.94l.34.12Z"/><path class="cls-5" d="M117.61,115.65v1.94l.34-.31v-1.94A3.39,3.39,0,0,1,117.61,115.65Z"/><path class="cls-5" d="M110.69,119.73v-1.94h-.34v1.94Z"/><path class="cls-5" d="M108,117.56l-.34-.07v1.94l.34.07Z"/><path class="cls-5" d="M102.19,116a4.66,4.66,0,0,0,.34.61v-1.94a3.36,3.36,0,0,1-.34-.61Z"/><path class="cls-5" d="M103.44,117.55v-1.93l-.34-.31v1.93A3.39,3.39,0,0,0,103.44,117.55Z"/><path class="cls-5" d="M104.35,116.26,104,116V118l.34.22Z"/><path class="cls-5" d="M116.14,116.6l-.34.16v1.93l.34-.16Z"/><path class="cls-5" d="M113.41,117.51l-.34.07v1.93l.34-.07Z"/><path class="cls-5" d="M115.23,117l-.34.11v1.94l.34-.12Z"/><path class="cls-5" d="M112.51,117.66l-.34,0v1.93l.34,0Z"/><path class="cls-5" d="M111.6,117.76l-.34,0v1.93l.34,0Z"/><path class="cls-5" d="M114.32,117.29l-.34.09v1.94l.34-.09Z"/><g class="cls-8"><polygon class="cls-9" points="135.87 61.02 135.74 108.43 135.74 108.51 99.01 129.85 99.13 87.29 99.14 82.37 135.87 61.02"/><polygon class="cls-9" points="99.11 82.37 99.09 87.29 98.97 129.85 98.75 129.72 62.14 108.58 62 108.51 62.14 61.02 99.11 82.37"/></g><g class="cls-8"><path class="cls-10" d="M134.84,62.58,134.71,108l-34.93,20.3.12-41V82.89l34.93-20.31m.9-1.56L99,82.37v4.92l-.12,42.56,36.73-21.34v-.08L135.74,61Z"/><path class="cls-10" d="M62.94,62.57,98.12,82.89v4.4l-.12,41L62.81,108l.13-45.42M62,61l-.13,47.49.13.07,36.61,21.14.23.13L99,87.29V82.37L62,61Z"/></g><polygon class="cls-11" points="136.74 60.92 136.6 68.57 98.88 90.5 99.02 82.84 136.74 60.92"/><polygon class="cls-12" points="99.02 82.84 98.88 90.5 60.91 68.57 61.05 60.92 99.02 82.84"/><polygon class="cls-13" points="98.77 39 61.05 60.92 99.02 82.84 136.74 60.92 98.77 39"/><polygon class="cls-12" points="108.68 57.31 105.09 55.24 89.11 64.53 92.7 66.6 108.68 57.31"/><path class="cls-5" d="M99.5,46.45c3.54-2.05,6.41-.39,6.41,3.7A14.15,14.15,0,0,1,99.5,61.24c-3.53,2-6.4.39-6.4-3.7A14.17,14.17,0,0,1,99.5,46.45ZM105,50.68c0-3.5-2.46-4.91-5.49-3.17A12.14,12.14,0,0,0,94,57c0,3.49,2.46,4.91,5.48,3.16A12.11,12.11,0,0,0,105,50.68Z"/><path class="cls-6" d="M99.5,47.51c3-1.74,5.49-.33,5.49,3.17a12.11,12.11,0,0,1-5.49,9.49C96.48,61.92,94,60.5,94,57A12.14,12.14,0,0,1,99.5,47.51Zm5.1,3.39c0-3.24-2.28-4.56-5.1-2.94a11.28,11.28,0,0,0-5.09,8.82c0,3.25,2.28,4.57,5.09,2.94A11.23,11.23,0,0,0,104.6,50.9Z"/><path class="cls-7" d="M99.5,48c2.82-1.62,5.1-.3,5.1,2.94a11.23,11.23,0,0,1-5.1,8.82c-2.81,1.63-5.09.31-5.09-2.94A11.28,11.28,0,0,1,99.5,48Zm4.4,3.35c0-2.81-2-3.94-4.4-2.54a9.73,9.73,0,0,0-4.39,7.61c0,2.8,2,3.94,4.39,2.54A9.71,9.71,0,0,0,103.9,51.31Z"/><ellipse class="cls-5" cx="99.5" cy="53.84" rx="6.21" ry="3.59" transform="translate(3.12 113.09) rotate(-60)"/><path class="cls-6" d="M102.28,45c-1.16-.67-2.77-.58-4.55.45a14.07,14.07,0,0,0-6.39,11.06c0,2,.72,3.44,1.87,4.11l1.76,1c-1.15-.67-1.87-2.09-1.87-4.11a14.08,14.08,0,0,1,6.38-11.06c1.78-1,3.4-1.12,4.56-.44Z"/><path class="cls-5" d="M91.4,55.52c0,.13,0,.26,0,.39l1.75,1c0-.13,0-.26,0-.39Z"/><path class="cls-5" d="M91.56,54.5c0,.13-.06.25-.08.37l1.76,1c0-.13.05-.25.07-.37Z"/><path class="cls-5" d="M92.45,51.71c0,.11-.09.23-.14.34l1.76,1,.14-.33Z"/><path class="cls-5" d="M91.79,53.54c0,.12-.07.23-.1.35l1.76,1c0-.12.06-.24.1-.36Z"/><path class="cls-5" d="M92.09,52.61,92,53l1.76,1,.12-.34Z"/><path class="cls-5" d="M91.34,56.59c0,.14,0,.28,0,.42l1.76,1c0-.14,0-.28,0-.43Z"/><path class="cls-5" d="M101.13,44.62a4.69,4.69,0,0,0-.76,0l1.76,1a4.74,4.74,0,0,1,.76,0Z"/><path class="cls-5" d="M91.45,57.75c0,.17.06.32.1.48l1.76,1c0-.15-.07-.31-.1-.47Z"/><path class="cls-5" d="M94,60.75a4,4,0,0,1-.38-.64l-1.76-1a4.5,4.5,0,0,0,.38.64Z"/><path class="cls-5" d="M95.72,47c-.09.09-.17.18-.26.26l1.76,1,.26-.26Z"/><path class="cls-5" d="M98.28,45.17l-.38.19,1.76,1,.38-.19Z"/><path class="cls-5" d="M97.32,45.72l-.33.22,1.76,1,.33-.22Z"/><path class="cls-5" d="M99.44,44.74l-.47.14,1.76,1,.47-.14Z"/><path class="cls-5" d="M96.47,46.33l-.28.24,1.75,1,.29-.24Z"/><path class="cls-5" d="M92.87,50.85l-.16.32,1.75,1a3.18,3.18,0,0,0,.16-.32Z"/><path class="cls-5" d="M93.33,50l-.18.31,1.76,1,.18-.31Z"/><path class="cls-5" d="M93.85,49.22a3,3,0,0,0-.2.29l1.75,1,.21-.29Z"/><path class="cls-5" d="M95,47.7,94.8,48l1.76,1c.07-.09.16-.18.24-.27Z"/><path class="cls-5" d="M94.42,48.44l-.23.28,1.76,1,.22-.29Z"/><polygon class="cls-10" points="108.68 57.31 105.09 55.24 105.09 59.4 108.68 57.31"/></g></svg>