<svg id="Layer_1" data-name="Layer 1" xmlns="http://www.w3.org/2000/svg" viewBox="0 0 100 100"><defs><style>.cls-1{fill:#a6d6a2;}.cls-2,.cls-3,.cls-4{fill:none;stroke:#000;}.cls-2,.cls-3{stroke-miterlimit:10;}.cls-3,.cls-4{stroke-linecap:round;}.cls-4{stroke-linejoin:round;}</style></defs><title>Nidhi icon</title><circle class="cls-1" cx="50" cy="50" r="44.34"/><rect class="cls-2" x="18.88" y="27.39" width="36" height="46" rx="6.15"/><line class="cls-3" x1="25.38" y1="46.39" x2="48.38" y2="46.39"/><line class="cls-3" x1="25.38" y1="51.39" x2="48.38" y2="51.39"/><line class="cls-3" x1="25.38" y1="56.39" x2="48.38" y2="56.39"/><line class="cls-3" x1="25.38" y1="61.39" x2="38.38" y2="61.39"/><rect class="cls-2" x="39.88" y="34.39" width="8" height="8" rx="1.8"/><path d="M57.86,63.79a.55.55,0,0,0-.55.55.55.55,0,0,0,.55.55h3.79a.54.54,0,0,0,.55-.55h0V63.11l16-1.53a6.89,6.89,0,0,0,3.35-1.25l6.9-4.92a1.52,1.52,0,0,0,.36-2.11,1.59,1.59,0,0,0-.49-.44l-1.12-.64a1.54,1.54,0,0,0-1.37-.07l-6.77,3H77.66l.51-.73a1.8,1.8,0,0,0-.42-2.51,1.86,1.86,0,0,0-1-.33H68.6a2.81,2.81,0,0,0-1.88.73L62.2,56.48v0a.55.55,0,0,0-.55-.55H57.86a.55.55,0,0,0-.55.55.55.55,0,0,0,.55.55H61.1v6.8Zm4.39-5.86,5.22-4.8a1.69,1.69,0,0,1,1.13-.44h8.11a.69.69,0,0,1,.69.7.66.66,0,0,1-.13.4l-1,1.37h-6a.55.55,0,1,0,0,1.1H79.2a.59.59,0,0,0,.23,0l6.88-3.05a.44.44,0,0,1,.37,0l1.13.64a.4.4,0,0,1,.15.56.41.41,0,0,1-.12.14l-6.9,4.91a5.74,5.74,0,0,1-2.82,1L62.2,62V58l0,0Z"/><circle class="cls-4" cx="73.88" cy="42.39" r="6"/><path d="M73.88,39.18a1.43,1.43,0,0,1,1.43,1.43.36.36,0,0,0,.72,0,2.15,2.15,0,0,0-1.79-2.11v-.75a.36.36,0,1,0-.71,0v.75a2.14,2.14,0,0,0,.35,4.25,1.43,1.43,0,1,1-1.43,1.43.36.36,0,1,0-.71,0,2.15,2.15,0,0,0,1.79,2.11V47a.36.36,0,0,0,.71,0v-.75A2.14,2.14,0,0,0,73.88,42a1.43,1.43,0,1,1,0-2.86Z"/></svg>