<svg width="35" height="23" viewBox="0 0 35 23" fill="none" xmlns="http://www.w3.org/2000/svg">
<path d="M0 20.125C0 20.8875 0.302901 21.6188 0.842068 22.1579C1.38123 22.6971 2.1125 23 2.875 23H31.625C32.3875 23 33.1188 22.6971 33.6579 22.1579C34.1971 21.6188 34.5 20.8875 34.5 20.125V8.625H0V20.125ZM24.4375 12.9375C24.9437 12.9428 25.4396 13.0816 25.875 13.34C26.3115 13.081 26.8088 12.9422 27.3164 12.9376C27.8239 12.9331 28.3236 13.063 28.7647 13.3141C29.2058 13.5653 29.5725 13.9288 29.8276 14.3676C30.0827 14.8064 30.2171 15.3049 30.2171 15.8125C30.2171 16.3201 30.0827 16.8186 29.8276 17.2574C29.5725 17.6962 29.2058 18.0597 28.7647 18.3109C28.3236 18.562 27.8239 18.6919 27.3164 18.6874C26.8088 18.6828 26.3115 18.544 25.875 18.285C25.4934 18.5114 25.0646 18.6463 24.6222 18.6794C24.1798 18.7124 23.7357 18.6426 23.3247 18.4754C22.9138 18.3082 22.5471 18.0482 22.2534 17.7157C21.9597 17.3831 21.7469 16.9872 21.6317 16.5587C21.5165 16.1303 21.5021 15.681 21.5895 15.246C21.6769 14.811 21.8638 14.4022 22.1355 14.0515C22.4073 13.7008 22.7565 13.4177 23.1558 13.2244C23.5552 13.0312 23.9939 12.933 24.4375 12.9375Z" fill="#F68E00"/>
<path d="M34.5 2.875C34.5 2.1125 34.1971 1.38124 33.6579 0.842069C33.1188 0.302901 32.3875 0 31.625 0H2.875C2.1125 0 1.38123 0.302901 0.842068 0.842069C0.302901 1.38124 0 2.1125 0 2.875V5.75H34.5V2.875Z" fill="#F68E00"/>
</svg>
