<svg width="20" height="20" viewBox="0 0 20 20" fill="none" xmlns="http://www.w3.org/2000/svg">
<path d="M8.76847 11.5084L6.30542 8.75419L5 10.2139L8.11576 13.6979C8.28895 13.8914 8.52371 14 8.76847 14C9.01324 14 9.248 13.8914 9.42118 13.6979L15 7.45972L13.6946 6L8.76847 11.5084Z" fill="#155686"/>
<path d="M16.4516 0H3.54839C2.6073 0 1.70475 0.373847 1.0393 1.0393C0.373847 1.70475 0 2.6073 0 3.54839V16.4516C0 17.3927 0.373847 18.2952 1.0393 18.9607C1.70475 19.6262 2.6073 20 3.54839 20H16.4516C17.3927 20 18.2952 19.6262 18.9607 18.9607C19.6262 18.2952 20 17.3927 20 16.4516V3.54839C20 2.6073 19.6262 1.70475 18.9607 1.0393C18.2952 0.373847 17.3927 0 16.4516 0ZM18.0645 16.4516C18.0645 16.8794 17.8946 17.2896 17.5921 17.5921C17.2896 17.8946 16.8794 18.0645 16.4516 18.0645H3.54839C3.12062 18.0645 2.71037 17.8946 2.40789 17.5921C2.10541 17.2896 1.93548 16.8794 1.93548 16.4516V3.54839C1.93548 3.12062 2.10541 2.71037 2.40789 2.40789C2.71037 2.10541 3.12062 1.93548 3.54839 1.93548H16.4516C16.8794 1.93548 17.2896 2.10541 17.5921 2.40789C17.8946 2.71037 18.0645 3.12062 18.0645 3.54839V16.4516Z" fill="#155686"/>
</svg>
