<svg width="32" height="16" viewBox="0 0 32 16" fill="none" xmlns="http://www.w3.org/2000/svg">
<path d="M9.35096 0L20.1063 9.40807L30.8617 0H9.35096ZM8.2127 0.987266V14.6115L16.0063 7.80521L8.2127 0.987266ZM32 0.987266L24.2064 7.80521L32 14.6115V0.987266ZM0.709474 1.48671C0.611842 1.49126 0.516064 1.51501 0.427609 1.55658C0.339155 1.59816 0.259757 1.65676 0.193951 1.72902C0.128144 1.80129 0.0772171 1.88581 0.0440788 1.97776C0.0109405 2.0697 -0.0037602 2.16728 0.000816258 2.26491C0.00539271 2.36254 0.0291566 2.45832 0.0707509 2.54676C0.112345 2.63521 0.170955 2.71459 0.243233 2.78039C0.315512 2.84618 0.400042 2.89709 0.491998 2.93021C0.583954 2.96333 0.681533 2.97801 0.779163 2.97341H5.98264C6.08114 2.97481 6.17894 2.95661 6.27034 2.91987C6.36175 2.88314 6.44495 2.82861 6.5151 2.75945C6.58525 2.69028 6.64095 2.60786 6.67897 2.51698C6.71699 2.4261 6.73657 2.32857 6.73657 2.23006C6.73657 2.13155 6.71699 2.03402 6.67897 1.94314C6.64095 1.85226 6.58525 1.76984 6.5151 1.70067C6.44495 1.63151 6.36175 1.57698 6.27034 1.54025C6.17894 1.50351 6.08114 1.48531 5.98264 1.48671H0.779163C0.755946 1.48562 0.732691 1.48562 0.709474 1.48671ZM1.45283 5.20347C1.35519 5.20803 1.25942 5.23177 1.17096 5.27335C1.08251 5.31493 1.00311 5.37352 0.937304 5.44579C0.871497 5.51805 0.82057 5.60257 0.787432 5.69452C0.754294 5.78647 0.739593 5.88405 0.74417 5.98168C0.748746 6.07931 0.77251 6.17508 0.814104 6.26353C0.855699 6.35197 0.914308 6.43136 0.986587 6.49715C1.05886 6.56295 1.1434 6.61385 1.23535 6.64697C1.32731 6.68009 1.42489 6.69478 1.52252 6.69018H5.98264C6.08114 6.69157 6.17894 6.67337 6.27034 6.63664C6.36175 6.59991 6.44495 6.54538 6.5151 6.47621C6.58525 6.40705 6.64095 6.32463 6.67897 6.23375C6.71699 6.14287 6.73657 6.04534 6.73657 5.94683C6.73657 5.84831 6.71699 5.75078 6.67897 5.6599C6.64095 5.56902 6.58525 5.48661 6.5151 5.41744C6.44495 5.34828 6.36175 5.29374 6.27034 5.25701C6.17894 5.22028 6.08114 5.20208 5.98264 5.20347H1.52252C1.4993 5.20238 1.47604 5.20238 1.45283 5.20347ZM17.1329 8.79248L9.33934 15.6104H30.8734L23.0798 8.79248L20.5942 10.9645C20.4589 11.0821 20.2856 11.1469 20.1063 11.1469C19.9271 11.1469 19.7538 11.0821 19.6185 10.9645L17.1329 8.79248ZM2.19618 8.92024C2.09855 8.9248 2.00277 8.94854 1.91432 8.99012C1.82586 9.0317 1.74646 9.09029 1.68066 9.16255C1.61485 9.23482 1.56392 9.31934 1.53079 9.41129C1.49765 9.50324 1.48295 9.60081 1.48752 9.69845C1.4921 9.79608 1.51586 9.89185 1.55746 9.9803C1.59905 10.0687 1.65766 10.1481 1.72994 10.2139C1.80222 10.2797 1.88675 10.3306 1.9787 10.3637C2.07066 10.3969 2.16824 10.4115 2.26587 10.4069H5.98264C6.08114 10.4083 6.17894 10.3901 6.27034 10.3534C6.36175 10.3167 6.44495 10.2621 6.5151 10.193C6.58525 10.1238 6.64095 10.0414 6.67897 9.95052C6.71699 9.85964 6.73657 9.76211 6.73657 9.66359C6.73657 9.56508 6.71699 9.46755 6.67897 9.37667C6.64095 9.28579 6.58525 9.20337 6.5151 9.13421C6.44495 9.06504 6.36175 9.01051 6.27034 8.97378C6.17894 8.93705 6.08114 8.91885 5.98264 8.92024H2.26587C2.24265 8.91915 2.2194 8.91915 2.19618 8.92024Z" fill="white"/>
</svg>
