<svg id="Layer_1" data-name="Layer 1" xmlns="http://www.w3.org/2000/svg" viewBox="0 0 100 100"><title>Nidhi icon</title><path d="M42.8,51.33a7.31,7.31,0,0,0,2.3,3.9,7.58,7.58,0,0,0,4.56,1.85,7.17,7.17,0,0,0,4.46-1.24A7.67,7.67,0,0,0,57,52a7.59,7.59,0,0,0,.37-2.31s0-.05,0-.08V40.85a11.9,11.9,0,0,0-.46-4.41,8.29,8.29,0,0,0-1.34-2.28,7.33,7.33,0,0,0-1.72-1.47,7.2,7.2,0,0,0-4.52-1,8.65,8.65,0,0,0-1.35.23,8.26,8.26,0,0,0-1.23.48,6.88,6.88,0,0,0-1.86,1.29,7.22,7.22,0,0,0-2.17,4,25,25,0,0,0-.13,4v5.62A19.87,19.87,0,0,0,42.8,51.33Zm2.94-5.14V40.1a15.46,15.46,0,0,1,0-1.67,5.94,5.94,0,0,1,.29-1.1,6.13,6.13,0,0,1,.57-.95,6,6,0,0,1,.75-.76,5.73,5.73,0,0,1,1-.56,5.44,5.44,0,0,1,1.1-.3,5.15,5.15,0,0,1,1.11,0,5.44,5.44,0,0,1,1.1.3,5.38,5.38,0,0,1,1,.56,5.46,5.46,0,0,1,.76.76,5.64,5.64,0,0,1,.56.95,5.36,5.36,0,0,1,.3,1.11c0,.45,0,.9,0,1.35v9.92a4.9,4.9,0,0,1,0,.54,5.36,5.36,0,0,1-.3,1.11,5.12,5.12,0,0,1-.56,1,6,6,0,0,1-.76.75,5,5,0,0,1-1,.56,6.1,6.1,0,0,1-1.11.31,6.73,6.73,0,0,1-1.1,0,7.17,7.17,0,0,1-1.1-.3,5.78,5.78,0,0,1-1-.57,6.64,6.64,0,0,1-.75-.75,5.12,5.12,0,0,1-.56-1,6.22,6.22,0,0,1-.31-1.1c0-.48,0-.95,0-1.43Z"/><path d="M60.87,48.42A1.57,1.57,0,0,0,59.32,50a10.49,10.49,0,0,1-.08,1.25,11.12,11.12,0,0,1-.61,2.28,11.59,11.59,0,0,1-1.27,2.18,11.19,11.19,0,0,1-1.65,1.65,11,11,0,0,1-2.17,1.26,10.78,10.78,0,0,1-2.29.62c-.41,0-.81.07-1.22.07h0a10.14,10.14,0,0,1-1.23-.07,9.36,9.36,0,0,1-4.46-1.88,9.44,9.44,0,0,1-2.92-3.83,10.67,10.67,0,0,1-.61-2.28A10.49,10.49,0,0,1,40.69,50a1.58,1.58,0,0,0-1.56-1.56A1.6,1.6,0,0,0,37.56,50a12.36,12.36,0,0,0,2.24,7.11,15.65,15.65,0,0,0,1.26,1.54,12.73,12.73,0,0,0,1.52,1.32,12,12,0,0,0,3.23,1.74,11.21,11.21,0,0,0,2.63.63v3h-5a1.57,1.57,0,1,0,0,3.13H56.62a1.58,1.58,0,0,0,1.56-1.56,1.6,1.6,0,0,0-1.56-1.57h-5v-3A12.38,12.38,0,0,0,59.5,58a11.7,11.7,0,0,0,2.06-3.43,12.36,12.36,0,0,0,.84-3.7,8.64,8.64,0,0,0,0-.88A1.58,1.58,0,0,0,60.87,48.42Z"/></svg>