<svg width="18" height="18" viewBox="0 0 18 18" fill="none" xmlns="http://www.w3.org/2000/svg">
<path d="M18 9.3C18 14.097 14.0973 18 9.3 18C6.1071 18 3.3126 16.2699 1.8 13.6989V16.5H0V11.7C0 11.2593 0.3171 10.8942 0.7353 10.8165C0.7344 10.8108 0.7329 10.8054 0.732 10.8H5.7V12.6H3.2493C4.4214 14.7417 6.6912 16.2 9.3 16.2C13.1046 16.2 16.2 13.1049 16.2 9.3H18ZM16.2 1.5V4.3011C14.6874 1.7301 11.8929 0 8.7 0C3.9027 0 0 3.903 0 8.7H1.8C1.8 4.8951 4.8954 1.8 8.7 1.8C11.3088 1.8 13.5786 3.2583 14.7507 5.4H12.3V7.2H17.268C17.2671 7.1943 17.2656 7.1889 17.2647 7.1835C17.6829 7.1058 18 6.7407 18 6.3V1.5H16.2Z" fill="#155686"/>
</svg>
