<svg id="Layer_1" data-name="Layer 1" xmlns="http://www.w3.org/2000/svg" xmlns:xlink="http://www.w3.org/1999/xlink" viewBox="0 0 100 100"><defs><style>.cls-1{fill:#fcbb6b;}.cls-2{clip-path:url(#clip-path);}</style><clipPath id="clip-path"><circle class="cls-1" cx="50" cy="50" r="30.64"/></clipPath></defs><title>Nidhi icon</title><circle class="cls-1" cx="50" cy="50" r="30.64"/><g class="cls-2"><path d="M47.92,24.81A14.91,14.91,0,0,0,45.1,25a15.82,15.82,0,0,0-1.67,31v4.59a6.89,6.89,0,0,0-5-2.09h-1a1,1,0,0,0-1,1,1.06,1.06,0,0,0,0,.31,21,21,0,0,1,.94,5.62V76.24a7.92,7.92,0,0,0,7.91,7.91h4v-2h-4a5.9,5.9,0,0,1-5.93-5.93V65.35a18.66,18.66,0,0,0-.67-4.88,4.9,4.9,0,0,1,4.63,4.88v5h2V42.6a2,2,0,1,1,4,0V62.39h2V56.45a2,2,0,1,1,4,0v7.92h2V58.43a2,2,0,1,1,4,0v7.91h2V60.41a2,2,0,0,1,4,0V80.19a2,2,0,0,1-2,2v2a4,4,0,0,0,4-4V60.41a4,4,0,0,0-4-4,3.89,3.89,0,0,0-2.22.69,4,4,0,0,0-3.72-2.67,3.91,3.91,0,0,0-2.21.69,4.06,4.06,0,0,0-.84-1.4,15.82,15.82,0,0,0-8.28-28.95Zm-.06,2a13.84,13.84,0,0,1,6.41,25.84,4.19,4.19,0,0,0-1-.12,3.83,3.83,0,0,0-2,.55V49.68a9.88,9.88,0,1,0-7.91,0v4.2a13.85,13.85,0,0,1,4.43-27.11Z"/><path d="M47.56,32.71a7.91,7.91,0,0,1,3.78,14.76V42.6a4,4,0,0,0-7.91,0v4.87a7.91,7.91,0,0,1,4.13-14.76Z"/></g></svg>