<svg width="25" height="28" viewBox="0 0 25 28" fill="none" xmlns="http://www.w3.org/2000/svg">
<circle cx="12.5" cy="14.6113" r="12.5" fill="#D64151"/>
<path d="M14.2894 10.784L14.0014 16.76L14.2654 22.4L11.0494 23L11.3374 17.168L11.0734 11.384L14.2894 10.784ZM10.9054 7.28C10.9054 6.736 11.1134 6.256 11.5294 5.84C11.9454 5.408 12.4254 5.192 12.9694 5.192C13.5134 5.192 13.9294 5.344 14.2174 5.648C14.5054 5.936 14.6494 6.376 14.6494 6.968C14.6494 7.56 14.4414 8.072 14.0254 8.504C13.6254 8.92 13.1534 9.128 12.6094 9.128C12.0814 9.128 11.6654 8.952 11.3614 8.6C11.0574 8.248 10.9054 7.808 10.9054 7.28Z" fill="white"/>
</svg>
