<svg width="60" height="59" viewBox="0 0 60 59" fill="none" xmlns="http://www.w3.org/2000/svg">
<rect x="0.5" y="0.5" width="59" height="58" rx="7.5" fill="#101A73" stroke="#101A73"/>
<path d="M44.3099 42.6044L36.0318 34.263C37.8625 31.6262 38.7247 28.3096 38.4429 24.988C38.1612 21.6665 36.7568 18.5896 34.5154 16.3835C32.274 14.1775 29.3641 13.0079 26.3779 13.113C23.3916 13.218 20.5534 14.5897 18.4407 16.9489C16.3281 19.3081 15.0998 22.4776 15.0058 25.8123C14.9118 29.1471 15.9592 32.3965 17.9348 34.8994C19.9104 37.4023 22.6657 38.9706 25.6402 39.2851C28.6146 39.5996 31.5846 38.6368 33.9458 36.5925L41.4155 45.8365C41.601 46.0701 41.8273 46.2589 42.0806 46.3913C42.3338 46.5236 42.6087 46.5967 42.8881 46.6061C43.1676 46.6155 43.4459 46.5609 43.7058 46.4458C43.9657 46.3306 44.2018 46.1573 44.3995 45.9366C44.5972 45.7158 44.7524 45.4521 44.8555 45.1619C44.9586 44.8717 45.0075 44.561 44.9991 44.2488C44.9907 43.9367 44.9252 43.6299 44.8067 43.3471C44.6882 43.0643 44.5191 42.8115 44.3099 42.6044ZM17.0781 26.2463C17.0781 24.1064 17.6463 22.0146 18.7109 20.2353C19.7756 18.4561 21.2887 17.0693 23.0591 16.2504C24.8295 15.4315 26.7776 15.2173 28.6571 15.6348C30.5365 16.0522 32.2629 17.0827 33.6179 18.5958C34.9729 20.1089 35.8956 22.0368 36.2695 24.1355C36.6433 26.2343 36.4515 28.4097 35.7181 30.3867C34.9848 32.3637 33.743 34.0535 32.1497 35.2423C30.5564 36.4312 28.6831 37.0657 26.7669 37.0657C24.1981 37.0625 21.7355 35.9215 19.9191 33.8932C18.1027 31.8649 17.081 29.1148 17.0781 26.2463Z" fill="white"/>
</svg>
