<svg width="28" height="34" viewBox="0 0 28 34" fill="none" xmlns="http://www.w3.org/2000/svg">
<path d="M24.7526 10.1379L26.3544 8.53618C26.8514 8.03918 26.8514 7.23355 26.3544 6.73655C25.8574 6.23955 25.0517 6.23955 24.5547 6.73655L22.953 8.33827C20.8307 6.56791 18.1784 5.41482 15.2727 5.15136V2.54545H16.5455C17.248 2.54545 17.8182 1.97527 17.8182 1.27273C17.8182 0.570182 17.248 0 16.5455 0H11.4545C10.752 0 10.1818 0.570182 10.1818 1.27273C10.1818 1.97527 10.752 2.54545 11.4545 2.54545H12.7273V5.15136C9.82164 5.41482 7.16927 6.56791 5.047 8.33827L3.44527 6.73655C2.94891 6.23955 2.142 6.23955 1.64564 6.73655C1.14864 7.23355 1.14864 8.03918 1.64564 8.53618L3.24736 10.1379C1.22118 12.5663 0 15.6883 0 19.0909C0 26.8106 6.28027 33.0909 14 33.0909C21.7197 33.0909 28 26.8106 28 19.0909C28 15.6883 26.7788 12.5663 24.7526 10.1379ZM14 30.5455C7.68409 30.5455 2.54545 25.4068 2.54545 19.0909C2.54545 12.775 7.68409 7.63636 14 7.63636C20.3159 7.63636 25.4545 12.775 25.4545 19.0909C25.4545 25.4068 20.3159 30.5455 14 30.5455Z" fill="#101A73"/>
<path d="M13.9993 10.1816C13.2967 10.1816 12.7266 10.7518 12.7266 11.4544V19.0907C12.7266 19.7933 13.2967 20.3635 13.9993 20.3635C14.7018 20.3635 15.272 19.7933 15.272 19.0907V11.4544C15.272 10.7518 14.7018 10.1816 13.9993 10.1816Z" fill="#101A73"/>
</svg>
