<svg width="91" height="102" viewBox="0 0 91 102" fill="none" xmlns="http://www.w3.org/2000/svg">
<path d="M11.7921 41.3306L6.60604 44.8178L2.8418 54.1693L88.0874 54.3284L83.1854 43.8667L80.2023 41.3306H11.7921Z" fill="#FC785E"/>
<path d="M3.55176 51.1582H87.3765V52.7434H3.55176V51.1582Z" fill="#A54B3F" fill-opacity="0.498"/>
<path d="M88.0874 62.2539V95.7785C88.0874 97.4431 86.8081 98.7896 85.2458 98.7896H5.68335C4.11995 98.7896 2.8418 97.4431 2.8418 95.7785V62.2539H88.0874Z" fill="#59BFC1"/>
<path d="M2.13086 62.2539H88.7972V65.4241H2.13086V62.2539Z" fill="#D6F2F2" fill-opacity="0.298"/>
<path d="M0 59.0835V95.7783C0 99.1859 2.5574 101.96 5.68311 101.96H85.2456C88.3713 101.96 90.9287 99.1859 90.9287 95.7783V59.0835H0ZM88.0871 95.7783C88.0871 97.4429 86.8079 98.7894 85.2456 98.7894H5.68311C4.11971 98.7894 2.84156 97.4429 2.84156 95.7783V62.2537H88.0871V95.7783Z" fill="#2D4356"/>
<path d="M86.098 45.6097C84.6773 42.5191 80.9119 40.0625 77.7862 40.0625H64.9992C64.2894 41.1715 63.4369 42.2816 62.5844 43.2327H77.8575C79.9179 43.2327 82.6882 45.0553 83.6119 47.1165L86.2396 52.7433H4.6167L7.17411 47.1165C8.09789 45.1348 10.7979 43.2327 12.8572 43.2327H28.3442C27.4918 42.2816 26.6393 41.1715 25.9284 40.0625H12.8572C9.73151 40.0625 6.03748 42.5987 4.6167 45.6893L0 55.9135H90.9287L86.098 45.6097Z" fill="#2D4356"/>
<path d="M63.9344 24.2117C63.9344 35.5449 55.6225 44.818 45.4642 44.818C35.306 44.818 26.9941 35.5449 26.9941 24.2117C26.9941 12.8786 35.306 3.60547 45.4642 3.60547C55.6225 3.60547 63.9344 12.8786 63.9344 24.2117Z" fill="#FFDB80"/>
<path d="M64.6452 24.2116C64.6452 24.766 64.6452 25.2422 64.5739 25.7967C63.8629 36.4174 55.1254 45.6098 45.4641 45.6098C35.8028 45.6098 27.0653 36.4174 26.3555 25.7967C26.3555 25.2422 26.2842 24.766 26.2842 24.2116C26.2842 23.6571 26.994 23.1809 27.0653 22.6265C27.7763 33.2472 35.8028 41.6476 45.4641 41.6476C55.1254 41.6476 63.1531 33.2472 63.8629 22.6265C63.9342 23.1809 64.6452 23.6571 64.6452 24.2116Z" fill="#937D4A" fill-opacity="0.498"/>
<path d="M64.6452 24.2117C64.6452 24.7662 63.9342 25.2423 63.8629 25.7968C63.1531 15.1772 55.1967 6.77561 45.4641 6.77561C35.7326 6.77561 27.7763 15.1772 27.0653 25.7968C27.0653 25.2423 26.2842 24.7662 26.2842 24.2117C26.2842 13.2751 34.6662 3.44752 44.3988 2.81348C44.7543 2.81348 45.1098 2.81348 45.4641 2.81348C45.8196 2.81348 46.1751 2.81348 46.5305 2.81348C56.262 3.44752 64.6452 13.2751 64.6452 24.2117Z" fill="#F9EDD2" fill-opacity="0.498"/>
<path d="M60.3827 46.4029H53.1362C61.0926 42.9953 66.7757 34.3562 66.7757 24.2115C66.7757 11.0558 57.257 0.435059 45.464 0.435059C33.6721 0.435059 24.1523 11.0558 24.1523 24.2115C24.1523 34.3562 29.8355 42.9953 37.7918 46.4029H30.5464C29.7652 46.4029 29.1256 47.1165 29.1256 47.988C29.1256 48.8595 29.7652 49.5731 30.5464 49.5731H60.3827C61.1639 49.5731 61.8035 48.8595 61.8035 47.988C61.8035 47.1165 61.1639 46.4029 60.3827 46.4029ZM26.9939 24.2115C26.9939 12.8784 35.3057 3.60526 45.464 3.60526C55.6223 3.60526 63.9341 12.8784 63.9341 24.2115C63.9341 35.5447 55.6223 44.8178 45.464 44.8178C35.3057 44.8178 26.9939 35.5447 26.9939 24.2115Z" fill="#2D4356"/>
<path d="M88.0874 92.6084V95.7786C88.0874 97.4433 86.8081 98.7897 85.2458 98.7897H5.68335C4.11995 98.7897 2.8418 97.4433 2.8418 95.7786V92.6084C2.8418 94.2731 4.11995 95.6195 5.68335 95.6195H85.2458C86.8081 95.5412 88.0874 94.1935 88.0874 92.6084Z" fill="#18665C" fill-opacity="0.298"/>
</svg>
