<svg width="36" height="31" viewBox="0 0 36 31" fill="none" xmlns="http://www.w3.org/2000/svg">
<path d="M8.15785 30.9997H1.63157C1.19885 30.9997 0.783854 30.8278 0.477875 30.5219C0.171897 30.2159 0 29.8009 0 29.3682V13.0525C0 12.6197 0.171897 12.2048 0.477875 11.8988C0.783854 11.5928 1.19885 11.4209 1.63157 11.4209H8.15785C8.59056 11.4209 9.00556 11.5928 9.31154 11.8988C9.61752 12.2048 9.78941 12.6197 9.78941 13.0525V29.3682C9.78941 29.8009 9.61752 30.2159 9.31154 30.5219C9.00556 30.8278 8.59056 30.9997 8.15785 30.9997ZM3.26314 27.7366H6.52628V14.684H3.26314V27.7366Z" fill="#F68E00"/>
<path d="M24.9468 30.9991H8.15794C7.72522 30.9991 7.31022 30.8272 7.00424 30.5212C6.69826 30.2152 6.52637 29.8002 6.52637 29.3675V14.6834C6.52637 14.2507 6.69826 13.8357 7.00424 13.5297C7.31022 13.2237 7.72522 13.0518 8.15794 13.0518H17.0337C18.8564 13.0451 20.6187 13.7048 21.9889 14.9068C23.3591 16.1087 24.2428 17.7701 24.4736 19.5781H31.571C32.1412 19.5772 32.7029 19.7166 33.2065 19.9841C33.7102 20.2515 34.1402 20.6388 34.4588 21.1118C34.783 21.5842 34.9841 22.1301 35.0439 22.6999C35.1037 23.2697 35.0204 23.8454 34.8015 24.3749C34.0203 26.3453 32.6606 28.0329 30.9015 29.2154C29.1423 30.3978 27.0663 31.0197 24.9468 30.9991ZM9.78951 27.7359H24.9468C26.4076 27.7413 27.8362 27.3069 29.0467 26.4892C30.2573 25.6715 31.1937 24.5084 31.7341 23.1512C31.7527 23.119 31.7625 23.0824 31.7625 23.0452C31.7625 23.0079 31.7527 22.9714 31.7341 22.9391C31.7161 22.9078 31.6898 22.8822 31.6582 22.8649C31.6265 22.8476 31.5907 22.8394 31.5546 22.8412H14.6842C14.2515 22.8412 13.8365 22.6693 13.5305 22.3633C13.2245 22.0574 13.0526 21.6424 13.0526 21.2097C13.0526 20.7769 13.2245 20.3619 13.5305 20.056C13.8365 19.75 14.2515 19.5781 14.6842 19.5781H21.1126C20.9022 18.6529 20.3842 17.8265 19.6433 17.2338C18.9024 16.6411 17.9825 16.3172 17.0337 16.3149H9.78951V27.7359Z" fill="#F68E00"/>
<path d="M26.1054 13.0526C24.8146 13.0526 23.5528 12.6698 22.4796 11.9527C21.4063 11.2356 20.5698 10.2163 20.0759 9.02378C19.5819 7.83126 19.4527 6.51904 19.7045 5.25307C19.9563 3.98709 20.5779 2.82422 21.4906 1.9115C22.4033 0.998788 23.5662 0.377221 24.8322 0.125404C26.0981 -0.126414 27.4104 0.00282771 28.6029 0.496786C29.7954 0.990745 30.8147 1.82723 31.5318 2.90047C32.2489 3.97371 32.6317 5.2355 32.6317 6.52628C32.6317 8.25716 31.9441 9.91714 30.7202 11.1411C29.4962 12.365 27.8363 13.0526 26.1054 13.0526ZM26.1054 3.26314C25.46 3.26314 24.8291 3.45452 24.2925 3.81308C23.7559 4.17164 23.3376 4.68127 23.0906 5.27753C22.8437 5.87379 22.779 6.5299 22.9049 7.16289C23.0309 7.79587 23.3416 8.37731 23.798 8.83367C24.2544 9.29002 24.8358 9.60081 25.4688 9.72672C26.1018 9.85263 26.7579 9.78801 27.3541 9.54103C27.9504 9.29405 28.46 8.8758 28.8186 8.33918C29.1771 7.80256 29.3685 7.17167 29.3685 6.52628C29.3685 5.66084 29.0247 4.83085 28.4128 4.21889C27.8008 3.60693 26.9708 3.26314 26.1054 3.26314Z" fill="#F68E00"/>
</svg>
